<?xml version="1.0" encoding="UTF-8" standalone="no" ?>
<!DOCTYPE svg PUBLIC "-//W3C//DTD SVG 1.1//EN" "http://www.w3.org/Graphics/SVG/1.1/DTD/svg11.dtd">
<svg xmlns="http://www.w3.org/2000/svg" xmlns:xlink="http://www.w3.org/1999/xlink" version="1.1" width="1024" height="1024" viewBox="0 0 1024 1024" xml:space="preserve">
<desc>Created with Fabric.js 2.4.6</desc>
<defs>
</defs>
<rect x="0" y="0" width="100%" height="100%" fill="rgb(246,255,255)"></rect>
<g transform="matrix(1.57 0 0 1 512 512)" id="background-logo"  >
<rect style="stroke: none; stroke-width: 1; stroke-dasharray: none; stroke-linecap: butt; stroke-dashoffset: 0; stroke-linejoin: miter; stroke-miterlimit: 4; fill: rgb(246,255,255); fill-rule: nonzero; opacity: 1;"  x="-325.5" y="-512" rx="0" ry="0" width="651" height="1024" />
</g>
<g transform="matrix(1.57 0 0 1.57 427.15 416.15)" style="" id="logo-logo"  >
	<g transform="matrix(0.06 0 0 -0.06 20.28 0)" id="logo-logo"  >
<path style="stroke: none; stroke-width: 1; stroke-dasharray: none; stroke-linecap: butt; stroke-dashoffset: 0; stroke-linejoin: miter; stroke-miterlimit: 4; fill: rgb(35,31,32); fill-rule: nonzero; opacity: 1;"  transform=" translate(-4408.8, -3618.14)" d="m 5259.95 4659.13 c -10.43 0.13 -20.77 0.47 -31.23 0.47 c -112.32 0 -225.7 -8.08 -339.02 -23.72 c -60 144.04 -167.26 279.51 -314.94 381.41 c -1.56 1.07 -3.14 2.05 -4.69 3.12 c 16.35 55.1 40.72 106.11 72.51 150.68 c 64.33 90.24 151.43 142.58 245.21 147.41 c 4.81 0.27 9.61 0.37 14.39 0.37 c 194.82 0 364.19 -209.75 377.52 -467.57 c 3.48 -67.69 -3.81 -132.61 -19.75 -192.17 z M 4696.1 4165.87 c -70.66 -102.48 -196.58 -161.26 -345.38 -161.26 c -130.63 0 -268.03 45.15 -386.86 127.1 c -131.51 90.75 -226.78 215.64 -268.24 351.68 c -39.08 128.29 -24.81 250.8 40.14 344.99 c 70.69 102.48 196.58 161.23 345.4 161.23 c 130.64 0 268.01 -45.13 386.84 -127.07 c 264.78 -182.68 367.12 -495.21 228.1 -696.67 z m 2151.02 384.69 c -217.8 70.6 -397.11 -43.75 -518.44 -197.26 c -66.71 44.41 -138.15 84.41 -213.6 119.77 c 14.25 112.27 43.38 221.09 104.9 313.29 c 22.23 33.36 54.56 68.07 90.74 98.03 c -3.06 -26.56 -0.46 -53.76 8.14 -79.84 c 32.22 -97.73 137.94 -150.92 235.62 -118.72 c 16.22 5.34 129.38 45.88 129.38 181.67 c 0 122.46 -87.82 199.29 -192.08 199.29 c -312.35 0 -450.42 -305.3 -481.25 -548.64 c -14.89 5.85 -29.88 11.56 -45.02 17.06 c -159.67 57.79 -333.52 97.2 -515.04 114.17 c 14.56 67.1 20.77 138.22 16.99 211.62 c -19.25 371.87 -280.52 661.19 -589.33 645.25 c -152.26 -7.84 -290.28 -88.09 -388.63 -225.98 c -36.47 -51.15 -65.56 -108.18 -87.21 -169.04 c -104.3 43.31 -214.11 66.4 -321.13 66.4 c -211.55 0 -393.83 -88.39 -500.15 -242.49 c -98.2 -142.39 -121.38 -322.27 -65.21 -506.55 c 33.07 -108.61 91.81 -211.09 170.8 -300.63 c -86.22 -70.48 -165.47 -146.8 -236.4 -228.51 c -232.59 -267.95 -356.07 -567.95 -360.53 -865.93 l -523.44 -174.36 l 215.68 -217.1 l -348.75 -102.46 l 55.28 205.54 l -244.16 -100.65 l -221.34 144.06 l 20.28 -263.3 l -205.43 -166 l 256.7 -62.11 l 94.42 -246.62 l 138.34 224.94 l 263.76 13.57 l -137.93 162.04 l 603.19 95.27 l -115.69 181.63 l 181.47 22.03 c 74.56 -301.42 271.11 -557.77 569.76 -742.49 c 294.17 -181.96 660.17 -278.11 1058.43 -278.11 c 183.7 0 370.29 21.01 554.65 62.46 c 495.41 111.39 930.09 359.15 1223.94 697.68 c 300.27 345.93 418.68 745.99 333.85 1125.45 c -60.77 268.7 -218.97 497.77 -442.42 672.27 c 24.55 29.37 51.61 56.45 81.83 80.34 c 31.44 24.89 72.89 47.93 116.55 65.28 c -11.1 -24.33 -17.02 -51 -16.88 -78.47 c 0.52 -102.89 84.69 -186.09 187.54 -185.58 c 17.08 0.09 137.21 3.74 179.09 132.92 c 37.76 116.5 -22.09 216.67 -121.27 248.81" stroke-linecap="round" />
</g>
	<g transform="matrix(0.06 0 0 -0.06 -24.72 38.98)" id="logo-logo"  >
<path style="stroke: none; stroke-width: 1; stroke-dasharray: none; stroke-linecap: butt; stroke-dashoffset: 0; stroke-linejoin: miter; stroke-miterlimit: 4; fill: rgb(250,182,13); fill-rule: nonzero; opacity: 1;"  transform=" translate(-3612.44, -2928.27)" d="m 3293.2 2813.09 c -72.45 322.25 31.87 665.87 293.79 967.6 c 0.35 0.41 0.73 0.81 1.08 1.2 c -58.39 -592.1 70.49 -1191.6 366.04 -1707.23 c -344.18 157.85 -589.13 419.18 -660.91 738.43" stroke-linecap="round" />
</g>
	<g transform="matrix(0.06 0 0 -0.06 16.28 37.36)" id="logo-logo"  >
<path style="stroke: none; stroke-width: 1; stroke-dasharray: none; stroke-linecap: butt; stroke-dashoffset: 0; stroke-linejoin: miter; stroke-miterlimit: 4; fill: rgb(250,182,13); fill-rule: nonzero; opacity: 1;"  transform=" translate(-4338, -2956.99)" d="m 4750.24 1910.57 c -181.72 0 -355.02 22.5 -514.83 64.34 c -405.2 584.62 -562.08 1315.15 -431.13 2015.48 c 5.42 4.41 11.05 8.67 16.53 13.02 c 11.89 -9.03 23.93 -17.9 36.32 -26.44 c 146.93 -101.35 318.22 -157.94 483.54 -160.15 c 1.09 -249.67 29.24 -498.99 84.79 -746.02 c 93.13 -414.3 258.37 -801.69 491.42 -1153.87 c -55.72 -4.1 -111.35 -6.36 -166.64 -6.36" stroke-linecap="round" />
</g>
	<g transform="matrix(0.06 0 0 -0.06 61.94 23.07)" id="logo-logo"  >
<path style="stroke: none; stroke-width: 1; stroke-dasharray: none; stroke-linecap: butt; stroke-dashoffset: 0; stroke-linejoin: miter; stroke-miterlimit: 4; fill: rgb(250,182,13); fill-rule: nonzero; opacity: 1;"  transform=" translate(-5145.99, -3209.93)" d="m 5265.14 1968.61 c -46.91 -10.55 -93.93 -19.51 -141.01 -27.19 c -391.11 556.93 -597.6 1223.26 -597.33 1897.33 c 135.06 35.12 248.73 111.13 324.05 220.38 c 80.89 117.2 107.96 258.31 87.86 400.69 c 97 12.35 193.98 18.62 290.01 18.62 c 0.53 0 1.06 -0.01 1.55 -0.01 c -120.67 -815.66 71.17 -1655.19 534.91 -2337.47 c -155.28 -74.32 -323.32 -132.62 -500.04 -172.35" stroke-linecap="round" />
</g>
	<g transform="matrix(0.06 0 0 -0.06 112.69 15.19)" id="logo-logo"  >
<path style="stroke: none; stroke-width: 1; stroke-dasharray: none; stroke-linecap: butt; stroke-dashoffset: 0; stroke-linejoin: miter; stroke-miterlimit: 4; fill: rgb(250,182,13); fill-rule: nonzero; opacity: 1;"  transform=" translate(-6044.06, -3349.25)" d="m 6059.55 3323.27 c -95.65 -13.7 -201.27 118.34 -235.9 294.94 c -34.63 176.6 14.89 330.81 110.45 344.52 c 52.82 7.5 108.61 -29.49 153.87 -93.69 c -66.92 -18.28 -112.03 -98.98 -102.98 -190.61 c 9.87 -99.62 79.98 -174.21 156.62 -166.62 c 13.48 1.33 26.22 5.26 38.12 11.14 c -7.77 -109.19 -52.24 -189.99 -120.18 -199.68 z m 626.25 252.62 c -109.19 485.67 -619.1 837.43 -1269.78 894.38 c -120.77 -782.46 63.66 -1589.8 513.25 -2242.03 c 178.53 105.23 335.45 233.38 462.74 380.04 c 261.92 301.75 366.27 645.38 293.79 967.61" stroke-linecap="round" />
</g>
	<g transform="matrix(0.06 0 0 -0.06 -154.24 77.86)" id="logo-logo"  >
<path style="stroke: none; stroke-width: 1; stroke-dasharray: none; stroke-linecap: butt; stroke-dashoffset: 0; stroke-linejoin: miter; stroke-miterlimit: 4; fill: rgb(35,31,32); fill-rule: nonzero; opacity: 1;"  transform=" translate(-1320.33, -2240.19)" d="m 1297.5 2040.12 l -42.22 135 l -135.09 41.78 l 115.34 81.85 l -1.96 141.51 l 113.47 -84.49 l 133.88 45.61 l -45.23 -134 l 84.78 -113.29 l -141.5 1.61 l -81.47 -115.58" stroke-linecap="round" />
</g>
	<g transform="matrix(0.06 0 0 -0.06 -141.7 48.93)" id="logo-logo"  >
<path style="stroke: none; stroke-width: 1; stroke-dasharray: none; stroke-linecap: butt; stroke-dashoffset: 0; stroke-linejoin: miter; stroke-miterlimit: 4; fill: rgb(35,31,32); fill-rule: nonzero; opacity: 1;"  transform=" translate(-1542.28, -2752.2)" d="m 1667.75 2758.82 l -77.96 -45.6 l -6.68 -90.03 l -67.38 60.12 l -87.75 -21.45 l 36.36 82.66 l -47.52 76.77 l 89.83 -8.99 l 58.35 68.91 l 19.19 -88.23 l 83.56 -34.16" stroke-linecap="round" />
</g>
</g>
<g transform="matrix(1.57 0 0 1.57 512 709.99)"  >
<path style="stroke: none; stroke-width: 1; stroke-dasharray: none; stroke-linecap: butt; stroke-dashoffset: 0; stroke-linejoin: miter; stroke-miterlimit: 4; fill: rgb(35,31,32); fill-rule: nonzero; opacity: ;"  transform=" translate(-262.53, 31.19)" d="M 1.78 -58.23 L 1.78 -58.23 Q 1.78 -59.93 3.01 -61.16 Q 4.23 -62.38 5.94 -62.38 L 5.94 -62.38 L 33.08 -62.38 Q 34.78 -62.38 36 -61.16 Q 37.23 -59.93 37.23 -58.23 L 37.23 -58.23 Q 37.23 -56.53 36 -55.3 Q 34.78 -54.08 33.08 -54.08 L 33.08 -54.08 L 25.23 -54.08 Q 24.57 -54.08 24.18 -53.64 Q 23.78 -53.21 23.78 -52.54 L 23.78 -52.54 L 23.78 -4.23 Q 23.78 -2.53 22.52 -1.27 Q 21.25 0 19.55 0 L 19.55 0 Q 17.85 0 16.62 -1.27 Q 15.4 -2.53 15.4 -4.23 L 15.4 -4.23 L 15.4 -52.54 Q 15.4 -53.21 14.96 -53.64 Q 14.53 -54.08 13.86 -54.08 L 13.86 -54.08 L 5.94 -54.08 Q 4.23 -54.08 3.01 -55.3 Q 1.78 -56.53 1.78 -58.23 Z M 42.96 -4.32 L 42.96 -4.32 L 42.96 -58.15 Q 42.96 -59.85 44.18 -61.07 Q 45.41 -62.3 47.11 -62.3 L 47.11 -62.3 L 68.19 -62.3 Q 69.89 -62.3 71.12 -61.07 Q 72.34 -59.85 72.34 -58.15 L 72.34 -58.15 Q 72.34 -56.45 71.12 -55.2 Q 69.89 -53.96 68.19 -53.96 L 68.19 -53.96 L 52.79 -53.96 Q 52.13 -53.96 51.69 -53.54 Q 51.26 -53.13 51.26 -52.46 L 51.26 -52.46 L 51.26 -36.9 Q 51.26 -36.23 51.69 -35.84 Q 52.13 -35.44 52.79 -35.44 L 52.79 -35.44 L 63.92 -35.44 Q 65.62 -35.44 66.86 -34.22 Q 68.11 -33 68.11 -31.21 L 68.11 -31.21 Q 68.11 -29.51 66.86 -28.26 Q 65.62 -27.02 63.92 -27.02 L 63.92 -27.02 L 52.79 -27.02 Q 52.13 -27.02 51.69 -26.6 Q 51.26 -26.19 51.26 -25.48 L 51.26 -25.48 L 51.26 -9.96 Q 51.26 -9.38 51.69 -8.94 Q 52.13 -8.51 52.79 -8.51 L 52.79 -8.51 L 68.19 -8.51 Q 69.89 -8.51 71.12 -7.26 Q 72.34 -6.02 72.34 -4.32 L 72.34 -4.32 Q 72.34 -2.53 71.12 -1.31 Q 69.89 -0.08 68.19 -0.08 L 68.19 -0.08 L 47.11 -0.08 Q 45.41 -0.08 44.18 -1.31 Q 42.96 -2.53 42.96 -4.32 Z M 78.36 -4.23 L 78.36 -4.23 L 78.36 -58.06 Q 78.36 -59.77 79.6 -61.01 L 79.6 -61.01 Q 80.81 -62.21 82.59 -62.21 L 82.59 -62.21 L 94.17 -62.21 Q 99.61 -62.21 104.01 -59.23 L 104.01 -59.23 Q 108.41 -56.24 110.48 -51.51 L 110.48 -51.51 Q 111.15 -49.8 111.5 -48.1 Q 111.85 -46.4 111.85 -44.62 L 111.85 -44.62 Q 111.85 -39.1 108.78 -34.78 L 108.78 -34.78 Q 108.2 -33.83 107.47 -32.97 Q 106.75 -32.12 105.96 -31.46 L 105.96 -31.46 Q 105.54 -31.04 105.46 -30.44 Q 105.38 -29.84 105.71 -29.43 L 105.71 -29.43 Q 108.08 -26.27 108.62 -22.54 L 108.62 -22.54 Q 108.86 -21 109.16 -18.93 Q 109.45 -16.85 109.76 -14.59 Q 110.07 -12.33 110.36 -10.25 Q 110.65 -8.18 110.9 -6.81 L 110.9 -6.81 L 111.15 -4.86 Q 111.19 -4.52 111.19 -4.23 L 111.19 -4.23 Q 111.19 -2.91 110.36 -1.74 L 110.36 -1.74 Q 109.28 -0.33 107.58 -0.08 L 107.58 -0.08 Q 107.41 0 107 0 L 107 0 Q 105.46 0 104.28 -1.02 Q 103.1 -2.03 102.81 -3.65 L 102.81 -3.65 Q 102.81 -3.74 102.51 -5.81 Q 102.22 -7.89 101.85 -10.75 Q 101.48 -13.61 101.04 -16.54 Q 100.61 -19.47 100.36 -21.33 L 100.36 -21.33 Q 99.94 -23.78 98.16 -25.32 L 98.16 -25.32 Q 96.29 -26.94 93.88 -26.94 L 93.88 -26.94 L 88.28 -26.94 Q 87.61 -26.94 87.18 -26.52 Q 86.74 -26.11 86.74 -25.4 L 86.74 -25.4 L 86.74 -4.23 Q 86.74 -2.45 85.52 -1.22 Q 84.29 0 82.59 0 L 82.59 0 Q 80.81 0 79.58 -1.22 Q 78.36 -2.45 78.36 -4.23 Z M 86.74 -52.38 L 86.74 -36.81 Q 86.74 -36.23 87.18 -35.8 Q 87.61 -35.36 88.28 -35.36 L 88.28 -35.36 L 93.88 -35.36 L 93.96 -35.36 L 94.09 -35.36 L 94.17 -35.36 Q 97.08 -35.36 99.32 -36.9 L 99.32 -36.9 Q 101.68 -38.43 102.72 -40.96 L 102.72 -40.96 Q 103.39 -42.83 103.43 -44.62 L 103.43 -44.62 Q 103.43 -47.36 101.89 -49.8 L 101.89 -49.8 Q 100.27 -52.09 97.82 -53.13 L 97.82 -53.13 Q 96.04 -53.87 94.17 -53.87 L 94.17 -53.87 L 88.28 -53.87 Q 87.61 -53.87 87.18 -53.46 Q 86.74 -53.04 86.74 -52.38 L 86.74 -52.38 Z M 119.49 -4.23 L 119.49 -4.23 L 119.49 -58.06 Q 119.49 -59.77 120.73 -61.01 L 120.73 -61.01 Q 121.94 -62.21 123.72 -62.21 L 123.72 -62.21 L 135.3 -62.21 Q 140.74 -62.21 145.14 -59.23 L 145.14 -59.23 Q 149.54 -56.24 151.61 -51.51 L 151.61 -51.51 Q 152.28 -49.8 152.63 -48.1 Q 152.98 -46.4 152.98 -44.62 L 152.98 -44.62 Q 152.98 -39.1 149.91 -34.78 L 149.91 -34.78 Q 149.33 -33.83 148.6 -32.97 Q 147.88 -32.12 147.09 -31.46 L 147.09 -31.46 Q 146.67 -31.04 146.59 -30.44 Q 146.51 -29.84 146.84 -29.43 L 146.84 -29.43 Q 149.21 -26.27 149.75 -22.54 L 149.75 -22.54 Q 150 -21 150.29 -18.93 Q 150.58 -16.85 150.89 -14.59 Q 151.2 -12.33 151.49 -10.25 Q 151.78 -8.18 152.03 -6.81 L 152.03 -6.81 L 152.28 -4.86 Q 152.32 -4.52 152.32 -4.23 L 152.32 -4.23 Q 152.32 -2.91 151.49 -1.74 L 151.49 -1.74 Q 150.41 -0.33 148.71 -0.08 L 148.71 -0.08 Q 148.54 0 148.13 0 L 148.13 0 Q 146.59 0 145.41 -1.02 Q 144.23 -2.03 143.94 -3.65 L 143.94 -3.65 Q 143.94 -3.74 143.65 -5.81 Q 143.35 -7.89 142.98 -10.75 Q 142.61 -13.61 142.17 -16.54 Q 141.74 -19.47 141.49 -21.33 L 141.49 -21.33 Q 141.07 -23.78 139.29 -25.32 L 139.29 -25.32 Q 137.42 -26.94 135.01 -26.94 L 135.01 -26.94 L 129.41 -26.94 Q 128.75 -26.94 128.31 -26.52 Q 127.87 -26.11 127.87 -25.4 L 127.87 -25.4 L 127.87 -4.23 Q 127.87 -2.45 126.65 -1.22 Q 125.42 0 123.72 0 L 123.72 0 Q 121.94 0 120.71 -1.22 Q 119.49 -2.45 119.49 -4.23 Z M 127.87 -52.38 L 127.87 -36.81 Q 127.87 -36.23 128.31 -35.8 Q 128.75 -35.36 129.41 -35.36 L 129.41 -35.36 L 135.01 -35.36 L 135.1 -35.36 L 135.22 -35.36 L 135.3 -35.36 Q 138.21 -35.36 140.45 -36.9 L 140.45 -36.9 Q 142.81 -38.43 143.85 -40.96 L 143.85 -40.96 Q 144.52 -42.83 144.56 -44.62 L 144.56 -44.62 Q 144.56 -47.36 143.02 -49.8 L 143.02 -49.8 Q 141.4 -52.09 138.96 -53.13 L 138.96 -53.13 Q 137.17 -53.87 135.3 -53.87 L 135.3 -53.87 L 129.41 -53.87 Q 128.75 -53.87 128.31 -53.46 Q 127.87 -53.04 127.87 -52.38 L 127.87 -52.38 Z M 160.62 -4.23 L 160.62 -4.23 L 160.62 -58.06 Q 160.62 -59.77 161.84 -60.99 Q 163.07 -62.21 164.77 -62.21 L 164.77 -62.21 Q 166.47 -62.21 167.7 -60.99 Q 168.92 -59.77 168.92 -58.06 L 168.92 -58.06 L 168.92 -4.23 Q 168.92 -2.45 167.7 -1.22 Q 166.47 0 164.77 0 L 164.77 0 Q 163.07 0 161.84 -1.22 Q 160.62 -2.45 160.62 -4.23 Z M 177.84 -4.23 L 177.84 -4.23 L 177.84 -58.06 Q 177.84 -59.77 179.09 -61.01 L 179.09 -61.01 Q 180.29 -62.21 182.08 -62.21 L 182.08 -62.21 L 193.66 -62.21 Q 199.01 -62.21 203.49 -59.23 L 203.49 -59.23 Q 207.81 -56.15 209.89 -51.51 L 209.89 -51.51 Q 211.25 -48.27 211.25 -44.62 L 211.25 -44.62 Q 211.25 -39.18 208.27 -34.78 L 208.27 -34.78 Q 207.85 -34.12 207.29 -33.47 Q 206.73 -32.83 206.15 -32.21 L 206.15 -32.21 Q 205.73 -31.79 205.71 -31.15 Q 205.69 -30.51 206.15 -30.09 L 206.15 -30.09 Q 208.6 -27.64 209.89 -24.57 L 209.89 -24.57 Q 211.25 -21.33 211.25 -17.68 L 211.25 -17.68 Q 211.25 -12.24 208.27 -7.8 L 208.27 -7.8 Q 205.2 -3.28 200.42 -1.45 L 200.42 -1.45 Q 197.1 0 193.66 0 L 193.66 0 L 182.08 0 Q 180.21 0 179.09 -1.29 L 179.09 -1.29 Q 177.8 -2.57 177.84 -4.23 Z M 186.23 -25.4 L 186.23 -9.88 Q 186.23 -9.3 186.66 -8.86 Q 187.1 -8.43 187.76 -8.43 L 187.76 -8.43 L 193.66 -8.43 Q 196.4 -8.43 198.8 -9.96 L 198.8 -9.96 Q 201.09 -11.58 202.12 -14.03 L 202.12 -14.03 Q 202.87 -15.81 202.91 -17.68 L 202.91 -17.68 Q 202.91 -20.42 201.29 -22.87 L 201.29 -22.87 Q 199.76 -25.15 197.23 -26.19 L 197.23 -26.19 Q 195.52 -26.94 193.66 -26.94 L 193.66 -26.94 L 187.76 -26.94 Q 187.1 -26.94 186.66 -26.52 Q 186.23 -26.11 186.23 -25.4 L 186.23 -25.4 Z M 186.23 -52.38 L 186.23 -36.81 Q 186.23 -36.15 186.66 -35.76 Q 187.1 -35.36 187.76 -35.36 L 187.76 -35.36 L 193.66 -35.36 Q 196.4 -35.36 198.8 -36.9 L 198.8 -36.9 Q 201.09 -38.52 202.12 -40.96 L 202.12 -40.96 Q 202.87 -42.75 202.91 -44.62 L 202.91 -44.62 Q 202.91 -47.23 201.29 -49.8 L 201.29 -49.8 Q 199.68 -52.17 197.23 -53.13 L 197.23 -53.13 Q 195.52 -53.87 193.66 -53.87 L 193.66 -53.87 L 187.76 -53.87 Q 187.1 -53.87 186.66 -53.46 Q 186.23 -53.04 186.23 -52.38 L 186.23 -52.38 Z M 218.44 -4.23 L 218.44 -4.23 L 218.44 -58.06 Q 218.44 -59.77 219.72 -60.99 Q 221.01 -62.21 222.71 -62.21 L 222.71 -62.21 Q 224.41 -62.21 225.64 -60.99 Q 226.86 -59.77 226.86 -58.06 L 226.86 -58.06 L 226.86 -9.88 Q 226.86 -9.3 227.3 -8.86 Q 227.73 -8.43 228.4 -8.43 L 228.4 -8.43 L 238.94 -8.43 Q 240.64 -8.43 241.86 -7.18 Q 243.09 -5.94 243.09 -4.23 L 243.09 -4.23 Q 243.09 -2.45 241.86 -1.22 Q 240.64 0 238.94 0 L 238.94 0 L 222.71 0 Q 221.01 0 219.72 -1.22 Q 218.44 -2.45 218.44 -4.23 Z M 248.44 -4.32 L 248.44 -4.32 L 248.44 -58.15 Q 248.44 -59.85 249.67 -61.07 Q 250.89 -62.3 252.59 -62.3 L 252.59 -62.3 L 273.68 -62.3 Q 275.38 -62.3 276.6 -61.07 Q 277.83 -59.85 277.83 -58.15 L 277.83 -58.15 Q 277.83 -56.45 276.6 -55.2 Q 275.38 -53.96 273.68 -53.96 L 273.68 -53.96 L 258.28 -53.96 Q 257.61 -53.96 257.18 -53.54 Q 256.74 -53.13 256.74 -52.46 L 256.74 -52.46 L 256.74 -36.9 Q 256.74 -36.23 257.18 -35.84 Q 257.61 -35.44 258.28 -35.44 L 258.28 -35.44 L 269.4 -35.44 Q 271.1 -35.44 272.35 -34.22 Q 273.59 -33 273.59 -31.21 L 273.59 -31.21 Q 273.59 -29.51 272.35 -28.26 Q 271.1 -27.02 269.4 -27.02 L 269.4 -27.02 L 258.28 -27.02 Q 257.61 -27.02 257.18 -26.6 Q 256.74 -26.19 256.74 -25.48 L 256.74 -25.48 L 256.74 -9.96 Q 256.74 -9.38 257.18 -8.94 Q 257.61 -8.51 258.28 -8.51 L 258.28 -8.51 L 273.68 -8.51 Q 275.38 -8.51 276.6 -7.26 Q 277.83 -6.02 277.83 -4.32 L 277.83 -4.32 Q 277.83 -2.53 276.6 -1.31 Q 275.38 -0.08 273.68 -0.08 L 273.68 -0.08 L 252.59 -0.08 Q 250.89 -0.08 249.67 -1.31 Q 248.44 -2.53 248.44 -4.32 Z M 282.23 -58.23 L 282.23 -58.23 Q 282.23 -59.93 283.45 -61.16 Q 284.68 -62.38 286.38 -62.38 L 286.38 -62.38 L 313.52 -62.38 Q 315.22 -62.38 316.45 -61.16 Q 317.67 -59.93 317.67 -58.23 L 317.67 -58.23 Q 317.67 -56.53 316.45 -55.3 Q 315.22 -54.08 313.52 -54.08 L 313.52 -54.08 L 305.68 -54.08 Q 305.01 -54.08 304.62 -53.64 Q 304.22 -53.21 304.22 -52.54 L 304.22 -52.54 L 304.22 -4.23 Q 304.22 -2.53 302.96 -1.27 Q 301.69 0 299.99 0 L 299.99 0 Q 298.29 0 297.06 -1.27 Q 295.84 -2.53 295.84 -4.23 L 295.84 -4.23 L 295.84 -52.54 Q 295.84 -53.21 295.4 -53.64 Q 294.97 -54.08 294.3 -54.08 L 294.3 -54.08 L 286.38 -54.08 Q 284.68 -54.08 283.45 -55.3 Q 282.23 -56.53 282.23 -58.23 Z M 324.23 -4.23 L 324.23 -4.23 L 324.23 -58.06 Q 324.23 -59.77 325.47 -61.01 L 325.47 -61.01 Q 326.68 -62.21 328.46 -62.21 L 328.46 -62.21 L 340.04 -62.21 Q 345.48 -62.21 349.88 -59.23 L 349.88 -59.23 Q 354.28 -56.24 356.35 -51.51 L 356.35 -51.51 Q 357.02 -49.8 357.37 -48.1 Q 357.72 -46.4 357.72 -44.62 L 357.72 -44.62 Q 357.72 -39.1 354.65 -34.78 L 354.65 -34.78 Q 354.07 -33.83 353.34 -32.97 Q 352.62 -32.12 351.83 -31.46 L 351.83 -31.46 Q 351.41 -31.04 351.33 -30.44 Q 351.25 -29.84 351.58 -29.43 L 351.58 -29.43 Q 353.95 -26.27 354.48 -22.54 L 354.48 -22.54 Q 354.73 -21 355.02 -18.93 Q 355.31 -16.85 355.63 -14.59 Q 355.94 -12.33 356.23 -10.25 Q 356.52 -8.18 356.77 -6.81 L 356.77 -6.81 L 357.02 -4.86 Q 357.06 -4.52 357.06 -4.23 L 357.06 -4.23 Q 357.06 -2.91 356.23 -1.74 L 356.23 -1.74 Q 355.15 -0.33 353.45 -0.08 L 353.45 -0.08 Q 353.28 0 352.87 0 L 352.87 0 Q 351.33 0 350.15 -1.02 Q 348.96 -2.03 348.67 -3.65 L 348.67 -3.65 Q 348.67 -3.74 348.38 -5.81 Q 348.09 -7.89 347.72 -10.75 Q 347.35 -13.61 346.91 -16.54 Q 346.47 -19.47 346.23 -21.33 L 346.23 -21.33 Q 345.81 -23.78 344.03 -25.32 L 344.03 -25.32 Q 342.16 -26.94 339.75 -26.94 L 339.75 -26.94 L 334.15 -26.94 Q 333.48 -26.94 333.05 -26.52 Q 332.61 -26.11 332.61 -25.4 L 332.61 -25.4 L 332.61 -4.23 Q 332.61 -2.45 331.39 -1.22 Q 330.16 0 328.46 0 L 328.46 0 Q 326.68 0 325.45 -1.22 Q 324.23 -2.45 324.23 -4.23 Z M 332.61 -52.38 L 332.61 -36.81 Q 332.61 -36.23 333.05 -35.8 Q 333.48 -35.36 334.15 -35.36 L 334.15 -35.36 L 339.75 -35.36 L 339.83 -35.36 L 339.96 -35.36 L 340.04 -35.36 Q 342.95 -35.36 345.19 -36.9 L 345.19 -36.9 Q 347.55 -38.43 348.59 -40.96 L 348.59 -40.96 Q 349.26 -42.83 349.3 -44.62 L 349.3 -44.62 Q 349.3 -47.36 347.76 -49.8 L 347.76 -49.8 Q 346.14 -52.09 343.69 -53.13 L 343.69 -53.13 Q 341.91 -53.87 340.04 -53.87 L 340.04 -53.87 L 334.15 -53.87 Q 333.48 -53.87 333.05 -53.46 Q 332.61 -53.04 332.61 -52.38 L 332.61 -52.38 Z M 364.82 -4.15 L 364.82 -4.15 L 364.82 -45.9 Q 364.82 -48.35 365.55 -50.7 Q 366.27 -53.04 367.64 -54.99 L 367.64 -54.99 Q 370.38 -59.14 374.86 -60.93 L 374.86 -60.93 Q 377.93 -62.21 381.25 -62.21 L 381.25 -62.21 Q 386.36 -62.21 390.43 -59.43 L 390.43 -59.43 Q 394.49 -56.69 396.28 -52.29 L 396.28 -52.29 Q 397.65 -49.06 397.65 -45.9 L 397.65 -45.9 L 397.65 -4.15 Q 397.65 -2.45 396.4 -1.22 Q 395.16 0 393.37 0 L 393.37 0 Q 391.67 0 390.45 -1.22 Q 389.22 -2.45 389.22 -4.15 L 389.22 -4.15 L 389.22 -21.33 Q 389.22 -22 388.81 -22.43 Q 388.39 -22.87 387.69 -22.87 L 387.69 -22.87 L 374.78 -22.87 Q 374.12 -22.87 373.68 -22.43 Q 373.24 -22 373.24 -21.33 L 373.24 -21.33 L 373.24 -4.15 Q 373.24 -2.45 372.02 -1.22 Q 370.8 0 369.01 0 L 369.01 0 Q 367.31 0 366.06 -1.22 Q 364.82 -2.45 364.82 -4.15 Z M 373.24 -45.9 L 373.24 -32.71 Q 373.24 -32.04 373.68 -31.67 Q 374.12 -31.29 374.78 -31.29 L 374.78 -31.29 L 387.69 -31.29 Q 388.35 -31.29 388.79 -31.67 Q 389.22 -32.04 389.22 -32.71 L 389.22 -32.71 L 389.22 -45.9 Q 389.22 -48.44 387.85 -50.3 L 387.85 -50.3 Q 386.57 -52.25 384.37 -53.21 L 384.37 -53.21 Q 382.75 -53.87 381.25 -53.87 L 381.25 -53.87 Q 378.97 -53.87 376.73 -52.54 L 376.73 -52.54 Q 374.78 -51.26 373.83 -48.97 L 373.83 -48.97 Q 373.49 -48.31 373.37 -47.48 Q 373.24 -46.65 373.24 -45.9 L 373.24 -45.9 Z M 406.66 -4.32 L 406.66 -4.32 L 406.66 -58.15 Q 406.66 -59.85 407.88 -61.07 Q 409.1 -62.3 410.81 -62.3 L 410.81 -62.3 L 431.89 -62.3 Q 433.59 -62.3 434.82 -61.07 Q 436.04 -59.85 436.04 -58.15 L 436.04 -58.15 Q 436.04 -56.45 434.82 -55.2 Q 433.59 -53.96 431.89 -53.96 L 431.89 -53.96 L 416.49 -53.96 Q 415.83 -53.96 415.43 -53.54 Q 415.04 -53.13 415.04 -52.46 L 415.04 -52.46 L 415.04 -36.9 Q 415.04 -35.44 416.49 -35.44 L 416.49 -35.44 L 427.61 -35.44 Q 429.32 -35.44 430.56 -34.22 Q 431.81 -33 431.81 -31.21 L 431.81 -31.21 Q 431.81 -29.51 430.56 -28.26 Q 429.32 -27.02 427.61 -27.02 L 427.61 -27.02 L 416.49 -27.02 Q 415.83 -27.02 415.43 -26.6 Q 415.04 -26.19 415.04 -25.48 L 415.04 -25.48 L 415.04 -4.32 Q 415.04 -2.53 413.77 -1.31 Q 412.51 -0.08 410.81 -0.08 L 410.81 -0.08 Q 409.1 -0.08 407.88 -1.31 Q 406.66 -2.53 406.66 -4.32 Z M 442.27 -4.32 L 442.27 -4.32 L 442.27 -58.15 Q 442.27 -59.85 443.49 -61.07 Q 444.71 -62.3 446.42 -62.3 L 446.42 -62.3 L 467.5 -62.3 Q 469.2 -62.3 470.43 -61.07 Q 471.65 -59.85 471.65 -58.15 L 471.65 -58.15 Q 471.65 -56.45 470.43 -55.2 Q 469.2 -53.96 467.5 -53.96 L 467.5 -53.96 L 452.1 -53.96 Q 451.44 -53.96 451.04 -53.54 Q 450.65 -53.13 450.65 -52.46 L 450.65 -52.46 L 450.65 -36.9 Q 450.65 -35.44 452.1 -35.44 L 452.1 -35.44 L 463.23 -35.44 Q 464.93 -35.44 466.17 -34.22 Q 467.42 -33 467.42 -31.21 L 467.42 -31.21 Q 467.42 -29.51 466.17 -28.26 Q 464.93 -27.02 463.23 -27.02 L 463.23 -27.02 L 452.1 -27.02 Q 451.44 -27.02 451.04 -26.6 Q 450.65 -26.19 450.65 -25.48 L 450.65 -25.48 L 450.65 -4.32 Q 450.65 -2.53 449.38 -1.31 Q 448.12 -0.08 446.42 -0.08 L 446.42 -0.08 Q 444.71 -0.08 443.49 -1.31 Q 442.27 -2.53 442.27 -4.32 Z M 477.88 -4.23 L 477.88 -4.23 L 477.88 -58.06 Q 477.88 -59.77 479.1 -60.99 Q 480.32 -62.21 482.03 -62.21 L 482.03 -62.21 Q 483.73 -62.21 484.95 -60.99 Q 486.18 -59.77 486.18 -58.06 L 486.18 -58.06 L 486.18 -4.23 Q 486.18 -2.45 484.95 -1.22 Q 483.73 0 482.03 0 L 482.03 0 Q 480.32 0 479.1 -1.22 Q 477.88 -2.45 477.88 -4.23 Z M 493.36 -14.94 L 493.36 -14.94 L 493.36 -47.27 Q 493.36 -51.96 495.93 -55.66 L 495.93 -55.66 Q 498.38 -59.31 502.49 -61.01 L 502.49 -61.01 Q 505.1 -62.21 508.34 -62.21 L 508.34 -62.21 Q 512.95 -62.21 516.68 -59.68 L 516.68 -59.68 Q 520.42 -57.23 522.12 -53.13 L 522.12 -53.13 Q 523.28 -50.3 523.28 -47.48 L 523.28 -47.48 Q 523.28 -45.57 522.06 -44.33 Q 520.83 -43.08 519.13 -43.08 L 519.13 -43.08 Q 517.35 -43.08 516.12 -44.33 Q 514.9 -45.57 514.9 -47.27 L 514.9 -47.27 Q 514.9 -49.39 513.78 -51.01 L 513.78 -51.01 Q 512.66 -52.63 510.87 -53.37 L 510.87 -53.37 Q 509.67 -53.87 508.34 -53.87 L 508.34 -53.87 Q 506.47 -53.87 504.69 -52.79 L 504.69 -52.79 Q 502.86 -51.59 502.28 -49.8 L 502.28 -49.8 Q 501.7 -48.68 501.7 -47.27 L 501.7 -47.27 L 501.7 -14.94 Q 501.7 -12.99 502.9 -11.29 L 502.9 -11.29 Q 504.02 -9.67 505.77 -8.92 L 505.77 -8.92 Q 506.89 -8.43 508.34 -8.43 L 508.34 -8.43 Q 510.37 -8.43 511.99 -9.5 L 511.99 -9.5 Q 513.53 -10.46 514.36 -12.41 L 514.36 -12.41 Q 514.86 -13.7 514.9 -14.94 L 514.9 -14.94 Q 514.9 -16.64 516.12 -17.89 Q 517.35 -19.13 519.13 -19.13 L 519.13 -19.13 Q 520.83 -19.13 522.06 -17.89 Q 523.28 -16.64 523.28 -14.94 L 523.28 -14.94 Q 523.28 -12.74 522.62 -10.63 Q 521.95 -8.51 520.75 -6.64 L 520.75 -6.64 Q 518.3 -2.91 514.11 -1.2 L 514.11 -1.2 Q 511.29 0 508.34 0 L 508.34 0 Q 503.94 0 499.91 -2.53 L 499.91 -2.53 Q 496.26 -4.98 494.56 -9.17 L 494.56 -9.17 Q 493.36 -11.99 493.36 -14.94 Z" stroke-linecap="round" />
</g>
</svg>